<?xml version="1.0" encoding="UTF-8"?>
<svg width="600" height="400" viewBox="0 0 600 400" fill="none" xmlns="http://www.w3.org/2000/svg">
  <!-- Medical Cross -->
  <path d="M300 50 L300 350 M150 200 L450 200" stroke="#27A89C" stroke-width="40" stroke-linecap="round"/>
  
  <!-- Circular Elements -->
  <circle cx="300" cy="200" r="160" stroke="#27A89C" stroke-width="4" stroke-dasharray="8 8"/>
  <circle cx="300" cy="200" r="120" stroke="#27A89C" stroke-width="3" stroke-dasharray="6 6"/>
  
  <!-- Molecule Structure -->
  <circle cx="300" cy="200" r="8" fill="#27A89C"/>
  <circle cx="340" cy="160" r="6" fill="#27A89C"/>
  <circle cx="260" cy="160" r="6" fill="#27A89C"/>
  <circle cx="340" cy="240" r="6" fill="#27A89C"/>
  <circle cx="260" cy="240" r="6" fill="#27A89C"/>
  
  <line x1="300" y1="200" x2="340" y2="160" stroke="#27A89C" stroke-width="2"/>
  <line x1="300" y1="200" x2="260" y2="160" stroke="#27A89C" stroke-width="2"/>
  <line x1="300" y1="200" x2="340" y2="240" stroke="#27A89C" stroke-width="2"/>
  <line x1="300" y1="200" x2="260" y2="240" stroke="#27A89C" stroke-width="2"/>
  
  <!-- Decorative Elements -->
  <circle cx="200" cy="100" r="20" fill="#27A89C" fill-opacity="0.1"/>
  <circle cx="400" cy="300" r="30" fill="#27A89C" fill-opacity="0.1"/>
  <circle cx="150" cy="250" r="15" fill="#27A89C" fill-opacity="0.1"/>
  <circle cx="450" cy="150" r="25" fill="#27A89C" fill-opacity="0.1"/>
  
  <!-- Plus Symbols -->
  <path d="M180 80 L220 80 M200 60 L200 100" stroke="#27A89C" stroke-width="4" stroke-opacity="0.3"/>
  <path d="M380 280 L420 280 M400 260 L400 300" stroke="#27A89C" stroke-width="4" stroke-opacity="0.3"/>
  <path d="M130 230 L170 230 M150 210 L150 250" stroke="#27A89C" stroke-width="4" stroke-opacity="0.3"/>
  <path d="M430 130 L470 130 M450 110 L450 150" stroke="#27A89C" stroke-width="4" stroke-opacity="0.3"/>
</svg>
